<svg xmlns="http://www.w3.org/2000/svg" viewBox="0 0 400 80" width="400" height="80">
  <rect width="400" height="80" rx="10" fill="#0d0d0d"/>
  <polygon points="40,8 62.5,21 62.5,47 40,60 17.5,47 17.5,21" stroke="white" stroke-width="1.4" fill="none" opacity="0.85"/>
  <path d="M40,20 C33,20 27,24.5 26.5,29.5 C26,33 28,36.5 31.5,37.5 C31,39.5 31.5,41.5 34,42.5 C35.5,43 37.5,42.5 38.5,42 L40,41.5 Z" fill="none" stroke="white" stroke-width="0.85" opacity="0.65"/>
  <path d="M40,20 C47,20 53,24.5 53.5,29.5 C54,33 52,36.5 48.5,37.5 C49,39.5 48.5,41.5 46,42.5 C44.5,43 42.5,42.5 41.5,42 L40,41.5 Z" fill="none" stroke="white" stroke-width="0.85" opacity="0.65"/>
  <circle cx="34" cy="26" r="1.8" fill="white" opacity="0.85"/>
  <circle cx="29" cy="31.5" r="1.5" fill="white" opacity="0.65"/>
  <circle cx="35" cy="36" r="1.5" fill="white" opacity="0.75"/>
  <circle cx="40" cy="24" r="2.2" fill="white"/>
  <circle cx="40" cy="38.5" r="1.5" fill="white" opacity="0.65"/>
  <circle cx="46" cy="26" r="1.8" fill="white" opacity="0.85"/>
  <circle cx="51" cy="31.5" r="1.5" fill="white" opacity="0.65"/>
  <circle cx="45" cy="36" r="1.5" fill="white" opacity="0.75"/>
  <line x1="34" y1="26" x2="40" y2="24" stroke="white" stroke-width="0.7" opacity="0.6"/>
  <line x1="40" y1="24" x2="46" y2="26" stroke="white" stroke-width="0.7" opacity="0.6"/>
  <line x1="34" y1="26" x2="29" y2="31.5" stroke="white" stroke-width="0.7" opacity="0.45"/>
  <line x1="29" y1="31.5" x2="35" y2="36" stroke="white" stroke-width="0.7" opacity="0.45"/>
  <line x1="35" y1="36" x2="40" y2="38.5" stroke="white" stroke-width="0.7" opacity="0.55"/>
  <line x1="40" y1="38.5" x2="45" y2="36" stroke="white" stroke-width="0.7" opacity="0.55"/>
  <line x1="45" y1="36" x2="51" y2="31.5" stroke="white" stroke-width="0.7" opacity="0.45"/>
  <line x1="51" y1="31.5" x2="46" y2="26" stroke="white" stroke-width="0.7" opacity="0.45"/>
  <line x1="24" y1="31" x2="56" y2="31" stroke="white" stroke-width="0.7" stroke-opacity="0.3" stroke-dasharray="2 3"/>
  <circle cx="40" cy="24" r="5" stroke="white" stroke-width="0.7" fill="none" opacity="0.55"/>
  <text x="80" y="38" font-family="Georgia, serif" font-weight="900" font-size="28" fill="white" letter-spacing="-0.5">NeuroVision</text>
  <text x="272" y="28" font-family="'Courier New', monospace" font-weight="700" font-size="9" fill="white" opacity="0.55">.ai</text>
  <line x1="80" y1="48" x2="380" y2="48" stroke="white" stroke-width="0.5" opacity="0.2"/>
  <text x="80" y="64" font-family="'Courier New', monospace" font-size="9" fill="white" opacity="0.4" letter-spacing="0.12em">BRAIN TUMOR DETECTION SYSTEM</text>
</svg>
