<svg xmlns="http://www.w3.org/2000/svg" viewBox="0 0 200 180" width="200" height="180">
  <rect width="200" height="180" rx="16" fill="#111827"/>
  <circle cx="100" cy="68" r="50" fill="#0a1628"/>
  <polygon points="100,20 143.3,45 143.3,95 100,120 56.7,95 56.7,45" stroke="#1e4d8c" stroke-width="1.5" fill="none"/>
  <polygon points="100,25 139.4,47.5 139.4,92.5 100,115 60.6,92.5 60.6,47.5" stroke="#3b82f6" stroke-width="0.5" fill="none" stroke-opacity="0.25"/>
  <path d="M100,40 C90,40 81,46 80,54 C79,60 82.5,65.5 88.5,67 C88,70 89,73 92,74.5 C94,75.5 97.5,75 99,74.5 L100,74 Z" fill="#0d1f35" stroke="#1e4d8c" stroke-width="1"/>
  <path d="M100,40 C110,40 119,46 120,54 C121,60 117.5,65.5 111.5,67 C112,70 111,73 108,74.5 C106,75.5 102.5,75 101,74.5 L100,74 Z" fill="#0d1f35" stroke="#1e4d8c" stroke-width="1"/>
  <circle cx="90" cy="50" r="2.5" fill="#63b3ed"/>
  <circle cx="83" cy="58.5" r="2" fill="#3b82f6"/>
  <circle cx="91" cy="65" r="2" fill="#60a5fa"/>
  <circle cx="100" cy="47" r="3.2" fill="#93c5fd"/>
  <circle cx="100" cy="68" r="2" fill="#3b82f6"/>
  <circle cx="110" cy="50" r="2.5" fill="#63b3ed"/>
  <circle cx="117" cy="58.5" r="2" fill="#3b82f6"/>
  <circle cx="109" cy="65" r="2" fill="#60a5fa"/>
  <line x1="90" y1="50" x2="100" y2="47" stroke="#3b82f6" stroke-width="0.85" opacity="0.7"/>
  <line x1="100" y1="47" x2="110" y2="50" stroke="#3b82f6" stroke-width="0.85" opacity="0.7"/>
  <line x1="90" y1="50" x2="83" y2="58.5" stroke="#3b82f6" stroke-width="0.85" opacity="0.5"/>
  <line x1="83" y1="58.5" x2="91" y2="65" stroke="#3b82f6" stroke-width="0.85" opacity="0.5"/>
  <line x1="91" y1="65" x2="100" y2="68" stroke="#3b82f6" stroke-width="0.85" opacity="0.6"/>
  <line x1="100" y1="68" x2="109" y2="65" stroke="#3b82f6" stroke-width="0.85" opacity="0.6"/>
  <line x1="109" y1="65" x2="117" y2="58.5" stroke="#3b82f6" stroke-width="0.85" opacity="0.5"/>
  <line x1="117" y1="58.5" x2="110" y2="50" stroke="#3b82f6" stroke-width="0.85" opacity="0.5"/>
  <line x1="78" y1="58" x2="122" y2="58" stroke="#00d4ff" stroke-width="0.85" stroke-opacity="0.38" stroke-dasharray="2.5 3.5"/>
  <circle cx="100" cy="47" r="7.5" stroke="#00d4ff" stroke-width="0.85" fill="none" stroke-opacity="0.75"/>
  <line x1="96.2" y1="47" x2="93.7" y2="47" stroke="#00d4ff" stroke-width="0.85" stroke-opacity="0.75"/>
  <line x1="103.8" y1="47" x2="106.3" y2="47" stroke="#00d4ff" stroke-width="0.85" stroke-opacity="0.75"/>
  <line x1="100" y1="43.2" x2="100" y2="40.7" stroke="#00d4ff" stroke-width="0.85" stroke-opacity="0.75"/>
  <line x1="100" y1="50.8" x2="100" y2="53.3" stroke="#00d4ff" stroke-width="0.85" stroke-opacity="0.75"/>
  <text x="100" y="136" font-family="Georgia, serif" font-weight="900" font-size="22" text-anchor="middle" letter-spacing="-0.5">
    <tspan fill="#e8f4fd">Neuro</tspan><tspan fill="#63b3ed">Vision</tspan>
  </text>
  <text x="165" y="121" font-family="'Courier New', monospace" font-weight="700" font-size="9" fill="#63b3ed">.ai</text>
  <line x1="30" y1="144" x2="170" y2="144" stroke="#1a3a5c" stroke-width="0.75"/>
  <text x="100" y="160" font-family="'Courier New', monospace" font-size="8" fill="#4a7cb5" text-anchor="middle" letter-spacing="0.13em">BRAIN TUMOR DETECTION</text>
</svg>
